# xmcd
#
# Track frame offsets:
#	150
#	12787
#	25415
#	35527
#	50222
#	63875
#	77762
#	90765
#	101202
#	112620
#	123575
#	134867
#	147590
#	159155
#	169437
#	179467
#	190920
#	200762
#	212015
#	221725
#	232180
#	243052
#
# Disc length: 3393 seconds
#
# Revision: 1
# Processed by: cddbd v1.5.2PL0 Copyright (c) Steve Scherf et al.
# Submitted via: audiograbber 1.83.01
#
DISCID=420d3f16
DTITLE=Big Joe Turner, Smilin' Smokey Lynn, Big Maceo, H-Bomb Ferguson - Shouti
DTITLE=ng The Blues
DYEAR=1992
DGENRE=Classic R&B and Blues
TTITLE0=Big Joe Turner - Adam Bit The Apple
TTITLE1=Big Joe Turner - Still In The Dark
TTITLE2=Big Joe Turner - Feelin' Happy
TTITLE3=Big Joe Turner - Midnight Is Here Again aka Dawn Is Breakin' Through
TTITLE4=Big Joe Turner - I Want My Baby aka When The Rooster Crows
TTITLE5=Big Joe Turner - Life Is A Card Game
TTITLE6=Big Joe Turner - After A While You'll Be Sorry
TTITLE7=Big Joe Turner - Just A Travellin' Man
TTITLE8=Big Maceo - Big City Blues
TTITLE9=Big Maceo - Do You Remember
TTITLE10=Big Maceo - Just Tell Me Baby
TTITLE11=Big Maceo - One Sunday Morning
TTITLE12=Don Johnson Orchestra with Smilin' Smokey Lynn - State Street Boogie
TTITLE13=Don Johnson Orchestra with Smilin' Smokey Lynn - Jackson's Blues
TTITLE14=Don Johnson Orchestra with Smilin' Smokey Lynn - Chesterfield Baby
TTITLE15=Smilin' Smokey Lynn - Lonesome Lover Blues
TTITLE16=Smilin' Smokey Lynn - Run, Mister Rabbit, Run
TTITLE17=Smilin' Smokey Lynn - Feel Like Ballin' Tonight
TTITLE18=Smilin' Smokey Lynn - Rock-A-Bye Baby
TTITLE19=Smilin' Smokey Lynn - Hometown Baby (Hip Chat)
TTITLE20=H-Bomb Ferguson - She's Been Gone
TTITLE21=H-Bomb Ferguson - You Made Me Baby
EXTD=A collection of some of the best "Blues Shouters"
EXTT0=
EXTT1=
EXTT2=
EXTT3=
EXTT4=
EXTT5=
EXTT6=
EXTT7=
EXTT8=
EXTT9=
EXTT10=
EXTT11=
EXTT12=
EXTT13=
EXTT14=
EXTT15=
EXTT16=
EXTT17=
EXTT18=
EXTT19=
EXTT20=
EXTT21=
PLAYORDER=
